<?xml version="1.0" encoding="iso-8859-1"?>
<!-- Generator: Adobe Illustrator 19.0.0, SVG Export Plug-In . SVG Version: 6.00 Build 0)  -->
<svg version="1.1" id="Capa_1" xmlns="http://www.w3.org/2000/svg" xmlns:xlink="http://www.w3.org/1999/xlink" x="0px" y="0px"
	 viewBox="0 0 512 512" style="enable-background:new 0 0 512 512;" xml:space="preserve">
<g>
	<g>
		<path d="M511.161,315.645c-4.161-33.818-23.302-63.269-52.517-80.803l-50.662-30.406c-11.197-6.72-20.666-16.19-27.387-27.387
			l-30.406-50.662c-17.534-29.214-46.986-48.356-80.803-52.517c-33.819-4.16-67.03,7.271-91.123,31.364
			c-7.637,7.637-13.997,16.192-18.996,25.391l-27.863,46.424c-6.72,11.197-16.19,20.666-27.387,27.387l-50.661,30.406
			C24.142,252.376,4.999,281.828,0.84,315.645c-4.16,33.817,7.271,67.03,31.364,91.122c20.836,20.837,48.495,32.204,77.466,32.204
			c4.527,0,9.086-0.278,13.656-0.84c33.818-4.161,63.269-23.302,80.803-52.517l30.406-50.662c5.5-9.163,12.844-17.167,21.465-23.457
			c8.622,6.29,15.965,14.293,21.465,23.457l30.406,50.662c17.534,29.214,46.985,48.355,80.802,52.517
			c4.572,0.563,9.127,0.84,13.657,0.84c28.969,0,56.631-11.369,77.467-32.204C503.89,382.674,515.32,349.461,511.161,315.645z
			 M208.813,319.514l-30.406,50.662c-12.748,21.239-34.159,35.155-58.744,38.18c-24.583,3.029-48.731-5.286-66.248-22.801
			C35.9,368.04,27.59,343.894,30.614,319.309s16.941-45.997,38.181-58.745l50.661-30.406c11.012-6.609,20.798-15.158,28.867-25.119
			c6.137,30.146,24.41,56.106,51.094,72.121l29.567,17.745C221.126,302.078,214.299,310.374,208.813,319.514z M458.584,385.555
			c-17.516,17.515-41.664,25.824-66.247,22.802c-24.585-3.025-45.997-16.941-58.744-38.181l-30.406-50.662
			c-9.244-15.401-22.27-28.428-37.672-37.671l-50.661-30.406c-21.239-12.747-35.156-34.159-38.181-58.745
			c-2.054-16.692,1.124-33.179,8.854-47.529l2.005-3.34l-0.072-0.043c3.324-5.505,7.338-10.659,12.015-15.335
			c17.515-17.515,41.661-25.828,66.247-22.802c24.585,3.025,45.997,16.941,58.745,38.181l30.406,50.661
			c9.244,15.401,22.27,28.428,37.671,37.672l50.662,30.406c21.239,12.747,35.155,34.16,38.18,58.745
			C484.411,343.894,476.1,368.04,458.584,385.555z"/>
	</g>
</g>
<g>
	<g>
		<path d="M288.995,149.976c-18.194-18.193-47.796-18.194-65.99,0c-18.193,18.193-18.193,47.796,0,65.991
			c9.097,9.097,21.045,13.644,32.995,13.644c11.95,0,23.898-4.548,32.995-13.644C307.187,197.773,307.187,168.17,288.995,149.976z
			 M267.783,194.753c-6.498,6.498-17.068,6.497-23.565,0c-6.497-6.498-6.498-17.068,0-23.565c3.249-3.249,7.516-4.873,11.783-4.873
			c4.267,0,8.535,1.625,11.783,4.873C274.279,177.685,274.278,188.255,267.783,194.753z"/>
	</g>
</g>
<g>
	<g>
		<path d="M435.054,296.035c-18.193-18.193-47.796-18.193-65.99,0c-18.193,18.193-18.193,47.796,0,65.991
			c9.097,9.097,21.045,13.644,32.995,13.644s23.898-4.548,32.995-13.644C453.247,343.833,453.247,314.23,435.054,296.035z
			 M413.842,340.813c-6.497,6.498-17.068,6.498-23.565,0s-6.498-17.068,0-23.565c3.249-3.249,7.516-4.873,11.783-4.873
			s8.535,1.625,11.783,4.873C420.339,323.744,420.339,334.316,413.842,340.813z"/>
	</g>
</g>
<g>
	<g>
		<path d="M142.935,296.033c-18.194-18.191-47.797-18.191-65.991,0.002c-18.193,18.193-18.193,47.796,0,65.99
			c9.097,9.097,21.045,13.644,32.995,13.644c11.949,0,23.898-4.549,32.996-13.646C161.128,343.831,161.128,314.228,142.935,296.033z
			 M121.722,340.813c-6.497,6.497-17.068,6.497-23.565,0c-6.497-6.498-6.497-17.068,0-23.565c6.497-6.498,17.067-6.497,23.565,0
			C128.22,323.744,128.219,334.316,121.722,340.813z"/>
	</g>
</g>
<g>
</g>
<g>
</g>
<g>
</g>
<g>
</g>
<g>
</g>
<g>
</g>
<g>
</g>
<g>
</g>
<g>
</g>
<g>
</g>
<g>
</g>
<g>
</g>
<g>
</g>
<g>
</g>
<g>
</g>
</svg>
