<svg id="Capa_1" enable-background="new 0 0 512 512" height="512" viewBox="0 0 512 512" width="512" xmlns="http://www.w3.org/2000/svg"><g><path d="m391 512h90v-92h-90zm30-62h30v32h-30z"/><path d="m271 512h90v-212h-90zm30-182h30v152h-30z"/><path d="m151 512h90v-152h-90zm30-122h30v92h-30z"/><path d="m31 512h90v-302h-90zm30-272h30v242h-30z"/><path d="m284.792 197.374c8.098 7.809 19.098 12.626 31.208 12.626 6.15 0 12.014-1.243 17.359-3.487l62.954 87.301c-3.386 6.318-5.313 13.53-5.313 21.186 0 24.813 20.187 45 45 45s45-20.187 45-45-20.187-45-45-45c-6.15 0-12.014 1.243-17.359 3.487l-62.954-87.301c3.386-6.318 5.313-13.53 5.313-21.186 0-24.813-20.187-45-45-45s-45 20.187-45 45c0 1.881.13 3.731.355 5.552l-44.147 22.074c-8.098-7.809-19.098-12.626-31.208-12.626-3.813 0-7.515.481-11.053 1.378l-72.943-109.414c5.646-7.52 8.996-16.858 8.996-26.964 0-24.813-20.187-45-45-45s-45 20.187-45 45 20.187 45 45 45c3.813 0 7.515-.481 11.053-1.378l72.943 109.414c-5.646 7.52-8.996 16.858-8.996 26.964 0 24.813 20.187 45 45 45s45-20.187 45-45c0-1.881-.13-3.731-.355-5.552zm166.208 117.626c0 8.271-6.729 15-15 15s-15-6.729-15-15 6.729-15 15-15 15 6.729 15 15zm-135-165c8.271 0 15 6.729 15 15s-6.729 15-15 15-15-6.729-15-15 6.729-15 15-15zm-255-105c0-8.271 6.729-15 15-15s15 6.729 15 15-6.729 15-15 15-15-6.729-15-15zm135 195c-8.271 0-15-6.729-15-15s6.729-15 15-15 15 6.729 15 15-6.729 15-15 15z"/></g></svg>