<?xml version="1.0" encoding="iso-8859-1"?>
<!-- Generator: Adobe Illustrator 19.0.0, SVG Export Plug-In . SVG Version: 6.00 Build 0)  -->
<svg version="1.1" id="Capa_1" xmlns="http://www.w3.org/2000/svg" xmlns:xlink="http://www.w3.org/1999/xlink" x="0px" y="0px"
	 viewBox="0 0 512.005 512.005" style="enable-background:new 0 0 512.005 512.005;" xml:space="preserve">
<g>
	<g>
		<g>
			<path d="M117.824,81.963c-30.151,0-54.681,24.53-54.681,54.681s24.53,54.681,54.681,54.681s54.681-24.524,54.681-54.681
				C172.505,106.493,147.975,81.963,117.824,81.963z M117.824,156.047c-10.883,0-19.403-8.526-19.403-19.403
				c0-10.878,8.52-19.403,19.403-19.403s19.403,8.52,19.403,19.403C137.227,147.527,128.707,156.047,117.824,156.047z"/>
			<path d="M235.377,136.003c-4.392-62.942-56.028-112.25-117.553-112.25S4.663,73.061,0.276,135.985
				c-1.982,27.688,6.738,56.275,24.636,80.617l78.788,105.247c3.334,4.451,8.567,7.067,14.123,7.067s10.789-2.616,14.123-7.067
				l78.876-105.37C228.639,192.249,237.352,163.661,235.377,136.003z M182.489,195.459l-64.665,86.385l-64.577-86.267
				c-12.847-17.474-19.162-37.748-17.78-57.116c2.722-39.047,34.273-79.429,82.357-79.429s79.635,40.388,82.363,79.464
				C201.569,157.829,195.248,178.102,182.489,195.459z"/>
		</g>
	</g>
</g>
<g>
	<g>
		<g>
			<path d="M394.171,241.303c-30.151,0-54.681,24.53-54.681,54.681s24.53,54.681,54.681,54.681
				c29.293,0,53.823-24.307,54.681-54.681C448.852,265.833,424.322,241.303,394.171,241.303z M394.171,315.387
				c-10.883,0-19.403-8.52-19.403-19.403c0-10.883,8.52-19.403,19.403-19.403c10.883,0,19.403,8.526,19.409,18.903
				C413.268,306.456,404.56,315.387,394.171,315.387z"/>
			<path d="M511.73,295.349c-4.392-62.942-56.022-112.25-117.553-112.25s-113.161,49.307-117.547,112.22
				c-1.981,27.693,6.738,56.281,24.636,80.617l78.788,105.247c3.328,4.451,8.561,7.067,14.117,7.067
				c5.556,0,10.789-2.616,14.117-7.067l78.888-105.365C504.986,351.601,513.705,323.013,511.73,295.349z M458.836,354.799
				l-64.671,86.385l-64.577-86.267c-12.847-17.469-19.156-37.742-17.774-57.11c2.722-39.041,34.267-79.429,82.357-79.429
				c48.09,0,79.635,40.382,82.357,79.458C477.904,317.181,471.595,337.454,458.836,354.799z"/>
		</g>
	</g>
</g>
<g>
	<g>
		
			<rect x="238.055" y="230.731" transform="matrix(0.5001 -0.866 0.866 0.5001 -210.4543 416.7094)" width="35.279" height="319.807"/>
	</g>
</g>
<g>
</g>
<g>
</g>
<g>
</g>
<g>
</g>
<g>
</g>
<g>
</g>
<g>
</g>
<g>
</g>
<g>
</g>
<g>
</g>
<g>
</g>
<g>
</g>
<g>
</g>
<g>
</g>
<g>
</g>
</svg>
