<svg id="Capa_1" enable-background="new 0 0 512 512" height="512" viewBox="0 0 512 512" width="512" xmlns="http://www.w3.org/2000/svg"><g><path d="m31 512h90v-92h-90zm30-62h30v32h-30z"/><path d="m151 512h90v-212h-90zm30-182h30v152h-30z"/><path d="m271 512h90v-152h-90zm30-122h30v92h-30z"/><path d="m391 512h90v-302h-90zm30-272h30v242h-30z"/><path d="m424.947 88.622c3.538.897 7.24 1.378 11.053 1.378 24.813 0 45-20.187 45-45s-20.187-45-45-45-45 20.187-45 45c0 10.106 3.35 19.444 8.996 26.964l-72.943 109.414c-3.538-.897-7.24-1.378-11.053-1.378-12.11 0-23.11 4.817-31.208 12.626l-44.147-22.074c.225-1.821.355-3.671.355-5.552 0-24.813-20.187-45-45-45s-45 20.187-45 45c0 7.656 1.927 14.868 5.313 21.186l-62.954 87.301c-5.345-2.244-11.209-3.487-17.359-3.487-24.813 0-45 20.187-45 45s20.187 45 45 45 45-20.187 45-45c0-7.656-1.927-14.868-5.313-21.186l62.954-87.301c5.345 2.244 11.209 3.487 17.359 3.487 12.11 0 23.11-4.817 31.208-12.626l44.147 22.074c-.225 1.821-.355 3.671-.355 5.552 0 24.813 20.187 45 45 45s45-20.187 45-45c0-10.106-3.35-19.444-8.996-26.964zm11.053-58.622c8.271 0 15 6.729 15 15s-6.729 15-15 15-15-6.729-15-15 6.729-15 15-15zm-360 300c-8.271 0-15-6.729-15-15s6.729-15 15-15 15 6.729 15 15-6.729 15-15 15zm120-150c-8.271 0-15-6.729-15-15s6.729-15 15-15 15 6.729 15 15-6.729 15-15 15zm120 60c-8.271 0-15-6.729-15-15s6.729-15 15-15 15 6.729 15 15-6.729 15-15 15z"/></g></svg>